# xmcd
#
# Track frame offsets:
#       150
#       17545
#       29555
#       44560
#       59180
#       70800
#       91047
#       107030
#       122752
#       133900
#       148480
#       164107
#       180885
#       195360
#       205720
#       218342
#       230717
#       246472
#       257792
#
# Disc length: 3583 seconds
#
# Revision: 3
# Processed by: cddbd v1.5.2PL0 Copyright (c) Steve Scherf et al.
# Submitted via: FreeDbEdit v0.1
#
DISCID=210dfd13
DTITLE=Various Artist - A Country Christmas [CD2]
DYEAR=1992
DGENRE=Holiday
TTITLE0=Ronnie Milsap - O Holy Night 
TTITLE1=Eddy Arnold - O Little Town of Bethlehem
TTITLE2=John Loudermilk - Mary's Little Boy Child
TTITLE3=The Judds - Silent Night
TTITLE4=George Hamilton IV - Natividad
TTITLE5=Gary Morris - Away in the Manger-The First Noel
TTITLE6=Sonny James - The Little Drummer Boy
TTITLE7=The Judds - What Child Is This?
TTITLE8=The Statler Brothers - The Lord's Prayer
TTITLE9=Glen Campbell - Have Yourself a Merry Little Christmas
TTITLE10=Ronnie Milsap - Only One Night of the Year
TTITLE11=K.T.Oslin - Blue Christmas
TTITLE12=Barbara Mandrell - It Must Have Been the Mistletoe
TTITLE13=Eddy Arnold - C-H-R-I-S-T-M-A-S
TTITLE14=Jim Reeves - An Old Christmas Card
TTITLE15=Merle Haggard - If We Make It Through December
TTITLE16=The Statler Brothers - Old-Fashioned Christmas
TTITLE17=Willie Nelson - Pretty Paper
TTITLE18=Eddy Arnold - I Heard the Bells on Christmas Day
EXTD=Readers Digest Collection [CD2 of 3)
EXTT0=
EXTT1=
EXTT2=
EXTT3=
EXTT4=
EXTT5=
EXTT6=
EXTT7=
EXTT8=
EXTT9=
EXTT10=
EXTT11=
EXTT12=
EXTT13=
EXTT14=
EXTT15=
EXTT16=
EXTT17=
EXTT18=
PLAYORDER=
